<?xml version="1.0" encoding="utf-8"?>
<!-- Generator: Adobe Illustrator 23.0.1, SVG Export Plug-In . SVG Version: 6.00 Build 0)  -->
<svg version="1.1" id="Layer_1" xmlns="http://www.w3.org/2000/svg" xmlns:xlink="http://www.w3.org/1999/xlink" x="0px" y="0px"
	 viewBox="0 0 815.96 254" style="enable-background:new 0 0 815.96 254;" xml:space="preserve">
<g>
	<path d="M815.96,205.98c0,31.93-19.01,48.02-50.95,48.02c-17.8,0-30.47-5.12-30.47-5.12l3.41-35.1c0,0,7.56,4.39,17.06,4.39
		c11.94,0,18.77-6.58,18.77-22.18v-19.74c-3.41,12.43-14.87,19.5-34.61,19.5c-27.55,0-39.98-13.89-39.98-36.32
		c0-7.8,1.46-23.16,1.46-29.49c0-10-3.41-13.89-9.99-13.89c-2.93,0-4.63,0.73-4.63,0.73v-31.2c0,0,9.26-3.9,22.67-3.9
		c25.6,0,33.88,14.38,33.88,35.59c0,6.34-0.73,18.04-0.73,23.64c0,12.43,3.41,19.01,15.85,19.01c11.7,0,16.09-5.61,16.09-16.33V84.1
		h42.17V205.98z"/>
	<path d="M670.55,120.17c0,0-9.51-1.71-16.33-1.71c-15.6,0-19.26,8.53-19.26,21.21v53.63h-42.17V84.1h42.17v18.28
		c5.12-15.36,15.36-20.72,35.59-20.72V120.17z"/>
	<path d="M575.25,179.89c0,0-11.46,15.84-32.66,15.84c-34.61,0-56.31-41.68-56.31-103.6C486.27,38.27,502.6,0,540.15,0
		c22.91,0,35.1,14.14,35.1,46.56c0,41.93-20.48,75.32-36.08,95.07c4.39,9.75,9.75,15.11,16.09,15.11c5.12,0,9.51-3.66,9.51-3.66
		L575.25,179.89z M532.83,120.66c0,0,15.36-27.06,15.36-66.06c0-13.16-1.7-18.53-7.56-18.53c-8.78,0-12.19,11.7-12.19,37.3
		C528.44,103.84,532.83,120.66,532.83,120.66z"/>
	<path d="M472.39,175.75c0,0-20.72,19.99-60.7,19.99c-37.78,0-63.38-17.79-63.38-57.53c0-38.76,24.38-56.55,65.82-56.55
		c33.15,0,57.29,11.46,57.29,35.59c0,24.38-24.62,31.69-47.53,31.69c-18.53,0-28.52-4.63-28.52-4.63
		c2.19,14.87,11.21,18.52,25.84,18.52c27.06,0,44.61-12.67,44.61-12.67L472.39,175.75z M395.12,130.66c0,0,3.17,0.97,8.05,0.97
		c10.48,0,19.74-4.87,19.74-11.46c0-3.9-3.17-6.82-10.97-6.82C401.94,113.35,396.33,118.22,395.12,130.66z"/>
	<path d="M341.25,84.1l-35.34,109.2h-58.26L213.76,84.1h45.58l19.5,74.1l19.01-74.1H341.25z"/>
	<path d="M169.9,193.3l-4.88-14.38c-4.39,11.94-13.89,16.82-33.64,16.82c-26.57,0-42.41-8.77-42.41-33.64
		c0-28.03,19.74-32.17,44.12-32.17c18.53,0,26.81,2.44,30.23,9.26v-9.02c0-10.97-10.97-14.62-28.03-14.62
		c-22.91,0-36.32,6.58-36.32,6.58V91.65c0,0,17.79-9.75,48.75-9.75c35.83,0,57.28,13.16,57.28,41.68v69.72H169.9z M163.32,151.37
		c0,0-5.36-2.44-15.36-2.44c-12.43,0-14.38,3.66-14.38,10c0,9.51,4.63,11.94,14.87,11.94c11.94,0,14.87-3.41,14.87-3.41V151.37z"/>
	<path d="M77.76,120.17c0,0-9.51-1.71-16.33-1.71c-15.6,0-19.26,8.53-19.26,21.21v53.63H0V84.1h42.17v18.28
		c5.12-15.36,15.36-20.72,35.59-20.72V120.17z"/>
</g>
</svg>
